# xmcd CD database file
# Copyright (C) 1997 Ti Kan
#
# Track frame offsets:
#  150
#  18710
#  34820
#  47385
#  62865
#  74835
#
# Disc length: 1231 seconds
#
# Revision: 1
# Processed by: cddbd v1.4b41PL1 Copyright (c) Steve Scherf et al.
# Submitted via: CDWizzard Release:4.31
#
DISCID=5504cd06
DTITLE=Trisha Yearwood - Discover Card Trisha Yearwood Sampler
DYEAR=1900
DGENRE=
TTITLE0=She's In Love With The Boy
TTITLE1=Lonesome Dove
TTITLE2=Wrong Side Of Memphis
TTITLE3=Nearest Distant Shore
TTITLE4=That's What I Like About You
TTITLE5=Lying To The Moon
EXTD=
EXTT0=
EXTT1=
EXTT2=
EXTT3=
EXTT4=
EXTT5=
PLAYORDER=
